<?xml version="1.0" encoding="utf-8"?>
<!-- Uploaded to: SVG Repo, www.svgrepo.com, Generator: SVG Repo Mixer Tools -->
<svg id="wine" width="800px" height="800px" viewBox="0 0 1024 1024" class="icon"  version="1.1" xmlns="http://www.w3.org/2000/svg"><path d="M650.6 1019.2c-40.6 0-78.9-15.9-107.8-44.8C514 945.5 498 907.2 498 866.6V672.8c0-6.1 4.9-11 11-11s11 4.9 11 11v193.8c0 34.7 13.6 67.5 38.4 92.2 24.7 24.7 57.5 38.4 92.2 38.4 6.1 0 11 4.9 11 11s-4.9 11-11 11z" fill="#86878E" /><path d="M367.5 1019.2c-6.1 0-11-4.9-11-11s4.9-11 11-11c34.7 0 67.5-13.6 92.2-38.4 24.7-24.7 38.4-57.5 38.4-92.2V672.8c0-6.1 4.9-11 11-11s11 4.9 11 11v193.8c0 40.6-15.9 78.9-44.8 107.8s-67.2 44.8-107.8 44.8z" fill="#86878E" /><path d="M650.6 1019.2H367.5c-6.1 0-11-4.9-11-11s4.9-11 11-11h283.2c6.1 0 11 4.9 11 11s-5 11-11.1 11z" fill="#86878E" /><path d="M373.6 418.1l-6.9 146.1C363.1 645.3 427.9 713 509 713s146-67.7 142.4-148.8l-6.9-146.1H373.6z" fill="#A5328F" /><path d="M509 724c-42.3 0-81.7-16.8-110.9-47.4-29.2-30.6-44.3-70.6-42.4-112.9l7.4-156.7h292l7.4 156.6c1.9 42.3-13.2 82.4-42.4 112.9C590.7 707.2 551.3 724 509 724zM384 429.1l-6.4 135.7c-1.6 36.2 11.3 70.5 36.4 96.7 25 26.2 58.8 40.6 95 40.6s70-14.4 95-40.6 38-60.5 36.4-96.7L634 429.1H384z" fill="#680946" /><path d="M509 724c-42.3 0-81.7-16.8-110.9-47.4-29.2-30.6-44.3-70.6-42.4-112.9l17.4-369.6h272l17.4 369.5c1.9 42.3-13.2 82.4-42.4 112.9C590.7 707.2 551.3 724 509 724zM394.1 216.2l-16.4 348.6c-1.6 36.2 11.3 70.5 36.4 96.7s58.8 40.6 95 40.6 70-14.4 95-40.6c25-26.2 38-60.5 36.4-96.7L624 216.2H394.1z" fill="#680946" /><path d="M509 33.7m-28.7 0a28.7 28.7 0 1 0 57.4 0 28.7 28.7 0 1 0-57.4 0Z" fill="#A5328F" /><path d="M447.9 124.3m-28.7 0a28.7 28.7 0 1 0 57.4 0 28.7 28.7 0 1 0-57.4 0Z" fill="#A5328F" /><path d="M570.2 124.3m-28.7 0a28.7 28.7 0 1 0 57.4 0 28.7 28.7 0 1 0-57.4 0Z" fill="#A5328F" /></svg>
